<svg id="egNf46UvBPA1" xmlns="http://www.w3.org/2000/svg" xmlns:xlink="http://www.w3.org/1999/xlink" viewBox="0 0 400 128" shape-rendering="geometricPrecision" text-rendering="geometricPrecision">
<style><![CDATA[
#egNf46UvBPA9_ts {animation: egNf46UvBPA9_ts__ts 3000ms linear infinite normal forwards}@keyframes egNf46UvBPA9_ts__ts { 0% {transform: translate(89.663799px,93.455502px) scale(1.3,1.3)} 50% {transform: translate(89.663799px,93.455502px) scale(1,1)} 100% {transform: translate(89.663799px,93.455502px) scale(1.3,1.3)}}
]]></style>
<defs><linearGradient id="egNf46UvBPA2-fill" x1="200" y1="0" x2="200" y2="128" spreadMethod="pad" gradientUnits="userSpaceOnUse" gradientTransform="translate(0 0)"><stop id="egNf46UvBPA2-fill-0" offset="0%" stop-color="#101010"/><stop id="egNf46UvBPA2-fill-1" offset="100%" stop-color="rgba(16,16,16,0)"/></linearGradient><radialGradient id="egNf46UvBPA4-fill" cx="0" cy="0" r="1" spreadMethod="pad" gradientUnits="userSpaceOnUse" gradientTransform="matrix(61.3333 25.6087 -23.5644 56.437 208.667 12.6956)"><stop id="egNf46UvBPA4-fill-0" offset="0%" stop-color="#ff5656"/><stop id="egNf46UvBPA4-fill-1" offset="100%" stop-color="rgba(255,86,86,0)"/></radialGradient><linearGradient id="egNf46UvBPA5-fill" x1="107" y1="59" x2="191" y2="59" spreadMethod="pad" gradientUnits="userSpaceOnUse" gradientTransform="translate(0 0)"><stop id="egNf46UvBPA5-fill-0" offset="0%" stop-color="#78ff62"/><stop id="egNf46UvBPA5-fill-1" offset="100%" stop-color="#65ffed"/></linearGradient><linearGradient id="egNf46UvBPA7-fill" x1="198" y1="59" x2="243" y2="59" spreadMethod="pad" gradientUnits="userSpaceOnUse" gradientTransform="translate(0 0)"><stop id="egNf46UvBPA7-fill-0" offset="0%" stop-color="#b276ff"/><stop id="egNf46UvBPA7-fill-1" offset="100%" stop-color="#ff52f8"/></linearGradient><linearGradient id="egNf46UvBPA8-fill" x1="248" y1="59" x2="293" y2="59" spreadMethod="pad" gradientUnits="userSpaceOnUse" gradientTransform="translate(0 0)"><stop id="egNf46UvBPA8-fill-0" offset="0%" stop-color="#ff5353"/><stop id="egNf46UvBPA8-fill-1" offset="100%" stop-color="#ff9e68"/></linearGradient></defs><rect width="400" height="128" rx="10" ry="10" fill="url(#egNf46UvBPA2-fill)"/><path d="M132.976,36h4.448v-23.328h-4.448v23.328Zm22.927.32c1.152,0,2.186-.2667,3.104-.8.938-.5547,1.61-1.2907,2.016-2.208h.224v2.688h4.16v-17.056h-3.936l-.224,2.72h-.224c-.406-.9387-1.067-1.6747-1.984-2.208-.918-.5333-1.952-.8-3.104-.8-2.048,0-3.659.6933-4.832,2.08-1.174,1.3653-1.76,3.5307-1.76,6.496v.608c0,2.6027.522,4.672,1.568,6.208c1.066,1.5147,2.73,2.272,4.992,2.272Zm1.632-3.424c-1.174,0-2.091-.3307-2.752-.992-.662-.6827-.992-1.6427-.992-2.88v-3.04c0-1.2587.33-2.2293.992-2.912.661-.6827,1.578-1.024,2.752-1.024c1.13,0,2.026.3627,2.688,1.088.682.704,1.024,1.6853,1.024,2.944v2.816c0,1.2373-.342,2.2187-1.024,2.944-.662.704-1.558,1.056-2.688,1.056ZM170.434,36h4.192v-9.568c0-1.3227.309-2.3787.928-3.168.618-.7893,1.514-1.184,2.688-1.184c1.045,0,1.845.2987,2.4.896.576.5973.864,1.6.864,3.008v10.016h4.192v-9.568c0-1.3227.309-2.3787.928-3.168.618-.7893,1.514-1.184,2.688-1.184c1.024,0,1.813.2987,2.368.896.576.5973.864,1.6.864,3.008v10.016h4.192v-10.784c0-2.2187-.523-3.8613-1.568-4.928-1.024-1.088-2.422-1.632-4.192-1.632-1.323,0-2.475.3307-3.456.992-.982.6613-1.654,1.5787-2.016,2.752h-.224c-.299-1.152-.907-2.0587-1.824-2.72-.918-.6827-2.07-1.024-3.456-1.024-1.216,0-2.283.288-3.2.864-.896.576-1.526,1.3653-1.888,2.368h-.288l-.288-2.944h-3.904v17.056Z" fill="#cecece"/><path d="M209.695,36h4.256v-16.8h.16l.416.768L224.063,36h5.344v-23.328h-4.256v16.8h-.16l-.48-.96-9.152-15.84h-5.664v23.328Zm32.247.32c1.408,0,2.656-.2453,3.744-.736c1.11-.4907,1.995-1.1627,2.656-2.016.662-.8747,1.024-1.888,1.088-3.04h-3.968c-.106.7893-.49,1.4187-1.152,1.888-.661.4693-1.493.704-2.496.704-1.152,0-2.09-.32-2.816-.96-.704-.6613-1.056-1.536-1.056-2.624v-.992h11.648v-2.048c0-1.5787-.309-2.9547-.928-4.128-.618-1.1733-1.525-2.0907-2.72-2.752-1.173-.6613-2.613-.992-4.32-.992-1.557,0-2.933.3307-4.128.992-1.194.6613-2.133,1.6427-2.816,2.944-.661,1.28-.992,2.848-.992,4.704v.256c0,1.7493.299,3.2853.896,4.608.598,1.3227,1.504,2.3573,2.72,3.104c1.238.7253,2.784,1.088,4.64,1.088Zm-4-10.592c0-1.2587.331-2.2293.992-2.912.662-.704,1.6-1.056,2.816-1.056c1.11,0,2.006.32,2.688.96.683.6187,1.024,1.6213,1.024,3.008v.16h-7.52v-.16ZM260.188,36.32c2.73,0,4.757-.7893,6.08-2.368c1.344-1.5787,2.026-3.7013,2.048-6.368v-.096c0-3.008-.747-5.2373-2.24-6.688-1.472-1.4507-3.435-2.176-5.888-2.176-2.432,0-4.384.7253-5.856,2.176s-2.208,3.68-2.208,6.688v.096c0,2.6667.661,4.7893,1.984,6.368c1.344,1.5787,3.37,2.368,6.08,2.368Zm0-3.392c-1.216,0-2.155-.3413-2.816-1.024-.662-.6827-.992-1.6213-.992-2.816v-3.136c0-1.1947.341-2.144,1.024-2.848.682-.704,1.61-1.056,2.784-1.056c1.194,0,2.133.352,2.816,1.056.682.704,1.024,1.6533,1.024,2.848v3.136c0,1.1947-.331,2.1333-.992,2.816-.662.6827-1.611,1.024-2.848,1.024Z" fill="url(#egNf46UvBPA4-fill)"/><path d="M110.28,62.08c-.627,0-1.143-.1-1.55-.3s-.71-.4767-.91-.83-.303-.7567-.31-1.21h.64c.013.3733.097.7.25.98.153.2733.383.4833.69.63s.7.22,1.18.22c.62,0,1.12-.1167,1.5-.35s.57-.5933.57-1.08c0-.26-.04-.4767-.12-.65-.073-.18-.197-.33-.37-.45s-.397-.22-.67-.3c-.267-.08-.593-.1567-.98-.23-.413-.0733-.78-.1567-1.1-.25-.313-.1-.577-.22-.79-.36-.207-.1467-.363-.3267-.47-.54-.107-.22-.16-.4833-.16-.79c0-.3933.1-.7333.3-1.02.2-.2933.487-.52.86-.68.38-.16.833-.24,1.36-.24.547,0,1.007.0867,1.38.26s.657.4167.85.73c.2.3133.303.6833.31,1.11h-.64c-.007-.3467-.09-.6367-.25-.87-.16-.24-.383-.42-.67-.54-.28-.12-.62-.18-1.02-.18-.387,0-.717.0567-.99.17-.273.1067-.483.2633-.63.47-.14.2-.21.4367-.21.71c0,.3133.07.56.21.74.147.1733.377.3133.69.42.32.1.737.2,1.25.3.34.0533.66.1233.96.21s.567.2067.8.36c.233.1467.413.3467.54.6.133.2533.2.58.2.98c0,.3933-.103.74-.31,1.04s-.513.5333-.92.7c-.4.16-.89.24-1.47.24Zm5.874,0c-.38,0-.713-.0767-1-.23s-.507-.3867-.66-.7c-.153-.32-.23-.7167-.23-1.19v-3.17h.59v3.04c0,.3667.05.68.15.94s.26.46.48.6c.22.1333.503.2.85.2.34,0,.64-.0833.9-.25s.463-.4033.61-.71c.147-.3133.22-.6733.22-1.08v-2.74h.59v5.21h-.55l-.04-1.16h-.05c-.133.38-.37.6833-.71.91-.333.22-.717.33-1.15.33Zm4.068-.08v-5.21h.52l.04,1.01h.03c.113-.34.317-.6033.61-.79.293-.1933.623-.29.99-.29.06,0,.113.0033.16.01.053,0,.103.0033.15.01v.56c-.04-.0067-.09-.01-.15-.01-.053,0-.107,0-.16,0-.293,0-.557.0567-.79.17s-.423.28-.57.5c-.14.22-.223.4833-.25.79v3.25h-.58Zm4.636,0l-1.961-5.22h.641l1.31,3.65.34,1.01h.03l.33-1.01l1.3-3.65h.64L125.558,62h-.7Zm5.392.08c-.493,0-.923-.11-1.29-.33-.36-.22-.64-.53-.84-.93-.2-.4067-.3-.8767-.3-1.41c0-.5467.097-1.02.29-1.42.194-.4067.47-.72.83-.94.36-.2267.79-.34,1.29-.34.54,0,.987.12,1.34.36.36.24.617.57.77.99.16.42.217.8933.17,1.42h-4.1c.007.4467.087.8267.24,1.14.154.3133.367.5533.64.72.28.1667.6.25.96.25.447,0,.814-.1033,1.1-.31.294-.2133.48-.4933.56-.84h.58c-.053.3333-.183.6233-.39.87-.206.24-.47.43-.79.57-.313.1333-.666.2-1.06.2Zm-1.83-2.98l-.07-.06h3.65l-.06.09c.007-.4333-.063-.79-.21-1.07-.14-.2867-.34-.5-.6-.64-.26-.1467-.563-.22-.91-.22-.353,0-.663.0767-.93.23-.26.1533-.466.3733-.62.66-.146.28-.23.6167-.25,1.01Zm4.719,4.57v-.5h.5c.167,0,.307-.0233.42-.07.12-.0467.22-.12.3-.22.087-.1.16-.2267.22-.38l.39-.97v.26l-2.15-5h.64l1.44,3.55.27.69h.04l.26-.69l1.36-3.55h.61l-2.32,5.88c-.093.2333-.203.4233-.33.57-.12.1467-.27.2533-.45.32-.173.0733-.383.11-.63.11h-.57Zm7.113-1.59c-.374,0-.714-.0633-1.02-.19-.3-.1267-.56-.3067-.78-.54-.22-.24-.39-.5233-.51-.85s-.18-.69-.18-1.09c0-.5333.103-1.0033.31-1.41.206-.4067.496-.7233.87-.95.373-.2267.81-.34,1.31-.34.366,0,.7.0633,1,.19.306.1267.566.31.78.55.22.2333.39.5167.51.85.12.3267.18.6933.18,1.1c0,.5267-.104.9933-.31,1.4-.2.4-.487.7133-.86.94-.367.2267-.8.34-1.3.34Zm-.01-.52c.373,0,.7-.0867.98-.26.286-.1733.506-.42.66-.74.153-.3267.23-.7133.23-1.16c0-.3333-.044-.63-.13-.89-.08-.2667-.204-.4967-.37-.69-.16-.1933-.357-.34-.59-.44-.227-.1-.484-.15-.77-.15-.374,0-.704.0867-.99.26-.28.1733-.5.4233-.66.75-.16.32-.24.71-.24,1.17c0,.3267.043.6233.13.89.086.26.213.4833.38.67.166.1867.363.3333.59.44.233.1.493.15.78.15Zm3.711.44v-5.21h.52l.04,1.01h.03c.113-.34.316-.6033.61-.79.293-.1933.623-.29.99-.29.06,0,.113.0033.16.01.053,0,.103.0033.15.01v.56c-.04-.0067-.09-.01-.15-.01-.054,0-.107,0-.16,0-.294,0-.557.0567-.79.17-.234.1133-.424.28-.57.5-.14.22-.224.4833-.25.79v3.25h-.58Zm6.039,0v-7.29h4.91v.55h-4.45l.16-.15v3.04l-.16-.15h3.97v.52h-3.97l.16-.15v3.22l-.16-.15h4.45v.56h-4.91Zm6.246,0v-5.21h.55l.03,1.13h.04c.166-.4.42-.7.76-.9.346-.2067.723-.31,1.13-.31.273,0,.523.0433.75.13.233.08.433.21.6.39.166.1733.296.4033.39.69.093.28.14.6233.14,1.03v3.05h-.59v-2.94c0-.42-.054-.7667-.16-1.04-.1-.2733-.257-.4733-.47-.6-.214-.1333-.487-.2-.82-.2-.354,0-.664.0867-.93.26-.267.1733-.474.41-.62.71-.147.2933-.22.6333-.22,1.02v2.79h-.58Zm7.887,1.77c-.374,0-.704-.0567-.99-.17-.287-.1133-.52-.2733-.7-.48-.174-.2067-.284-.4567-.33-.75h.57c.04.1867.123.35.25.49.126.1467.29.2567.49.33.206.0733.443.11.71.11.353,0,.656-.0533.91-.16.253-.1.45-.2667.59-.5.146-.2333.22-.5533.22-.96v-1.16h-.05c-.127.3533-.354.64-.68.86-.327.22-.717.33-1.17.33-.327,0-.624-.0567-.89-.17-.26-.1133-.484-.28-.67-.5-.187-.22-.33-.4833-.43-.79-.1-.3133-.15-.66-.15-1.04c0-.5133.09-.9567.27-1.33.18-.38.43-.67.75-.87.326-.2067.706-.31,1.14-.31.453,0,.84.1067,1.16.32s.543.5.67.86h.05v-1.09h.58v4.88c0,.38-.057.7033-.17.97-.114.2667-.274.4833-.48.65-.2.1667-.444.2867-.73.36-.28.08-.587.12-.92.12Zm-.02-2.55c.366,0,.676-.0833.93-.25.26-.1667.456-.38.59-.64.14-.2667.213-.5367.22-.81l-.01-.64c0-.2667-.067-.53-.2-.79-.127-.26-.32-.4733-.58-.64-.254-.1667-.564-.25-.93-.25-.354,0-.66.08-.92.24-.254.16-.45.3933-.59.7-.134.3-.2.6567-.2,1.07c0,.42.07.78.21,1.08s.336.53.59.69c.253.16.55.24.89.24Zm3.881.78v-5.21h.59v5.21h-.59Zm0-6.14v-1.15h.59v1.15h-.59ZM170.183,62v-5.21h.55l.03,1.13h.04c.167-.4.42-.7.76-.9.347-.2067.723-.31,1.13-.31.273,0,.523.0433.75.13.233.08.433.21.6.39.167.1733.297.4033.39.69.093.28.14.6233.14,1.03v3.05h-.59v-2.94c0-.42-.053-.7667-.16-1.04-.1-.2733-.257-.4733-.47-.6-.213-.1333-.487-.2-.82-.2-.353,0-.663.0867-.93.26s-.473.41-.62.71c-.147.2933-.22.6333-.22,1.02v2.79h-.58Zm7.997.08c-.493,0-.923-.11-1.29-.33-.36-.22-.64-.53-.84-.93-.2-.4067-.3-.8767-.3-1.41c0-.5467.097-1.02.29-1.42.193-.4067.47-.72.83-.94.36-.2267.79-.34,1.29-.34.54,0,.987.12,1.34.36.36.24.617.57.77.99.16.42.217.8933.17,1.42h-4.1c.007.4467.087.8267.24,1.14s.367.5533.64.72c.28.1667.6.25.96.25.447,0,.813-.1033,1.1-.31.293-.2133.48-.4933.56-.84h.58c-.053.3333-.183.6233-.39.87-.207.24-.47.43-.79.57-.313.1333-.667.2-1.06.2Zm-1.83-2.98l-.07-.06h3.65l-.06.09c.007-.4333-.063-.79-.21-1.07-.14-.2867-.34-.5-.6-.64-.26-.1467-.563-.22-.91-.22-.353,0-.663.0767-.93.23-.26.1533-.467.3733-.62.66-.147.28-.23.6167-.25,1.01Zm7.475,2.98c-.494,0-.924-.11-1.29-.33-.36-.22-.64-.53-.84-.93-.2-.4067-.3-.8767-.3-1.41c0-.5467.096-1.02.29-1.42.193-.4067.47-.72.83-.94.36-.2267.79-.34,1.29-.34.54,0,.986.12,1.34.36.36.24.616.57.77.99.16.42.216.8933.17,1.42h-4.1c.006.4467.086.8267.24,1.14.153.3133.366.5533.64.72.28.1667.6.25.96.25.446,0,.813-.1033,1.1-.31.293-.2133.48-.4933.56-.84h.58c-.054.3333-.184.6233-.39.87-.207.24-.47.43-.79.57-.314.1333-.667.2-1.06.2Zm-1.83-2.98l-.07-.06h3.65l-.06.09c.006-.4333-.064-.79-.21-1.07-.14-.2867-.34-.5-.6-.64-.26-.1467-.564-.22-.91-.22-.354,0-.664.0767-.93.23-.26.1533-.467.3733-.62.66-.147.28-.23.6167-.25,1.01Zm5.336,2.9v-5.21h.52l.04,1.01h.03c.114-.34.317-.6033.61-.79.294-.1933.624-.29.99-.29.06,0,.114.0033.16.01.054,0,.104.0033.15.01v.56c-.04-.0067-.09-.01-.15-.01-.053,0-.106,0-.16,0-.293,0-.556.0567-.79.17-.233.1133-.423.28-.57.5-.14.22-.223.4833-.25.79v3.25h-.58Z" fill="url(#egNf46UvBPA5-fill)"/><path d="M192.991,59.23c0-.1467.033-.2767.1-.39.066-.1133.156-.2.27-.26.12-.0667.253-.1.4-.1.233,0,.416.0733.55.22.133.14.2.3167.2.53c0,.14-.03.27-.09.39-.06.1133-.147.2033-.26.27-.107.06-.24.09-.4.09-.227,0-.414-.07-.56-.21-.14-.1467-.21-.3267-.21-.54Zm53.574,0c0-.1467.033-.2767.1-.39s.157-.2.27-.26c.12-.0667.253-.1.4-.1.233,0,.417.0733.55.22.133.14.2.3167.2.53c0,.14-.03.27-.09.39-.06.1133-.147.2033-.26.27-.107.06-.24.09-.4.09-.227,0-.413-.07-.56-.21-.14-.1467-.21-.3267-.21-.54Z" fill="#6c6c6c"/><path d="M198.449,62v-7.29h2.78c.68,0,1.26.15,1.74.45.486.3.856.7233,1.11,1.27.26.5467.39,1.19.39,1.93c0,.5467-.074,1.0467-.22,1.5-.147.4467-.36.83-.64,1.15-.274.3133-.61.5567-1.01.73s-.857.26-1.37.26h-2.78Zm.62-.56h2.1c.413,0,.783-.07,1.11-.21.333-.14.613-.3433.84-.61.233-.2667.41-.59.53-.97.12-.3867.18-.82.18-1.3c0-.6667-.11-1.2267-.33-1.68-.214-.46-.52-.81-.92-1.05s-.87-.36-1.41-.36h-2.1v6.18Zm8.799.64c-.494,0-.924-.11-1.29-.33-.36-.22-.64-.53-.84-.93-.2-.4067-.3-.8767-.3-1.41c0-.5467.096-1.02.29-1.42.193-.4067.47-.72.83-.94.36-.2267.79-.34,1.29-.34.54,0,.986.12,1.34.36.36.24.616.57.77.99.16.42.216.8933.17,1.42h-4.1c.006.4467.086.8267.24,1.14.153.3133.366.5533.64.72.28.1667.6.25.96.25.446,0,.813-.1033,1.1-.31.293-.2133.48-.4933.56-.84h.58c-.054.3333-.184.6233-.39.87-.207.24-.47.43-.79.57-.314.1333-.667.2-1.06.2Zm-1.83-2.98l-.07-.06h3.65l-.06.09c.006-.4333-.064-.79-.21-1.07-.14-.2867-.34-.5-.6-.64-.26-.1467-.564-.22-.91-.22-.354,0-.664.0767-.93.23-.26.1533-.467.3733-.62.66-.147.28-.23.6167-.25,1.01Zm6.388,2.9l-1.96-5.22h.64l1.31,3.65.34,1.01h.03l.33-1.01l1.3-3.65h.64L213.126,62h-.7Zm5.393.08c-.494,0-.924-.11-1.29-.33-.36-.22-.64-.53-.84-.93-.2-.4067-.3-.8767-.3-1.41c0-.5467.096-1.02.29-1.42.193-.4067.47-.72.83-.94.36-.2267.79-.34,1.29-.34.54,0,.986.12,1.34.36.36.24.616.57.77.99.16.42.216.8933.17,1.42h-4.1c.006.4467.086.8267.24,1.14.153.3133.366.5533.64.72.28.1667.6.25.96.25.446,0,.813-.1033,1.1-.31.293-.2133.48-.4933.56-.84h.58c-.054.3333-.184.6233-.39.87-.207.24-.47.43-.79.57-.314.1333-.667.2-1.06.2Zm-1.83-2.98l-.07-.06h3.65l-.06.09c.006-.4333-.064-.79-.21-1.07-.14-.2867-.34-.5-.6-.64-.26-.1467-.564-.22-.91-.22-.354,0-.664.0767-.93.23-.26.1533-.467.3733-.62.66-.147.28-.23.6167-.25,1.01Zm5.337,2.9v-7.29h.59v7.29h-.59Zm4.297.08c-.373,0-.713-.0633-1.02-.19-.3-.1267-.56-.3067-.78-.54-.22-.24-.39-.5233-.51-.85s-.18-.69-.18-1.09c0-.5333.103-1.0033.31-1.41s.497-.7233.87-.95.81-.34,1.31-.34c.367,0,.7.0633,1,.19.307.1267.567.31.78.55.22.2333.39.5167.51.85.12.3267.18.6933.18,1.1c0,.5267-.103.9933-.31,1.4-.2.4-.487.7133-.86.94-.367.2267-.8.34-1.3.34Zm-.01-.52c.373,0,.7-.0867.98-.26.287-.1733.507-.42.66-.74.153-.3267.23-.7133.23-1.16c0-.3333-.043-.63-.13-.89-.08-.2667-.203-.4967-.37-.69-.16-.1933-.357-.34-.59-.44-.227-.1-.483-.15-.77-.15-.373,0-.703.0867-.99.26-.28.1733-.5.4233-.66.75-.16.32-.24.71-.24,1.17c0,.3267.043.6233.13.89.087.26.213.4833.38.67s.363.3333.59.44c.233.1.493.15.78.15Zm3.711,2.11v-6.88h.57l.02,1.14h.04c.133-.3667.366-.6633.7-.89.333-.2267.733-.34,1.2-.34.32,0,.613.0633.88.19.266.12.496.2967.69.53.193.2333.343.5167.45.85.106.3333.16.71.16,1.13c0,.56-.094,1.0433-.28,1.45-.18.4-.434.7067-.76.92-.327.2133-.707.32-1.14.32-.307,0-.59-.05-.85-.15-.254-.1067-.47-.25-.65-.43-.174-.1867-.307-.4033-.4-.65h-.04v2.81h-.59Zm2.37-2.09c.346,0,.65-.0833.91-.25.26-.1733.46-.42.6-.74.146-.3267.22-.7233.22-1.19c0-.4733-.074-.87-.22-1.19-.14-.3267-.34-.5733-.6-.74-.26-.1733-.564-.26-.91-.26-.374,0-.694.0867-.96.26-.267.1733-.47.4033-.61.69-.134.28-.2.58-.2.9v.67c0,.24.036.47.11.69.08.22.196.4167.35.59.153.1733.34.3133.56.42.22.1.47.15.75.15Zm5.705.5c-.494,0-.924-.11-1.29-.33-.36-.22-.64-.53-.84-.93-.2-.4067-.3-.8767-.3-1.41c0-.5467.096-1.02.29-1.42.193-.4067.47-.72.83-.94.36-.2267.79-.34,1.29-.34.54,0,.986.12,1.34.36.36.24.616.57.77.99.16.42.216.8933.17,1.42h-4.1c.006.4467.086.8267.24,1.14.153.3133.366.5533.64.72.28.1667.6.25.96.25.446,0,.813-.1033,1.1-.31.293-.2133.48-.4933.56-.84h.58c-.054.3333-.184.6233-.39.87-.207.24-.47.43-.79.57-.314.1333-.667.2-1.06.2Zm-1.83-2.98l-.07-.06h3.65l-.06.09c.006-.4333-.064-.79-.21-1.07-.14-.2867-.34-.5-.6-.64-.26-.1467-.564-.22-.91-.22-.354,0-.664.0767-.93.23-.26.1533-.467.3733-.62.66-.147.28-.23.6167-.25,1.01Zm5.337,2.9v-5.21h.52l.04,1.01h.03c.113-.34.316-.6033.61-.79.293-.1933.623-.29.99-.29.06,0,.113.0033.16.01.053,0,.103.0033.15.01v.56c-.04-.0067-.09-.01-.15-.01-.054,0-.107,0-.16,0-.294,0-.557.0567-.79.17-.234.1133-.424.28-.57.5-.14.22-.224.4833-.25.79v3.25h-.58Z" fill="url(#egNf46UvBPA7-fill)"/><path d="M252.023,62v-7.29h2.78c.68,0,1.26.15,1.74.45.487.3.857.7233,1.11,1.27.26.5467.39,1.19.39,1.93c0,.5467-.073,1.0467-.22,1.5-.147.4467-.36.83-.64,1.15-.273.3133-.61.5567-1.01.73s-.857.26-1.37.26h-2.78Zm.62-.56h2.1c.413,0,.783-.07,1.11-.21.333-.14.613-.3433.84-.61.233-.2667.41-.59.53-.97.12-.3867.18-.82.18-1.3c0-.6667-.11-1.2267-.33-1.68-.213-.46-.52-.81-.92-1.05s-.87-.36-1.41-.36h-2.1v6.18Zm8.799.64c-.494,0-.924-.11-1.29-.33-.36-.22-.64-.53-.84-.93-.2-.4067-.3-.8767-.3-1.41c0-.5467.096-1.02.29-1.42.193-.4067.47-.72.83-.94.36-.2267.79-.34,1.29-.34.54,0,.986.12,1.34.36.36.24.616.57.77.99.16.42.216.8933.17,1.42h-4.1c.006.4467.086.8267.24,1.14.153.3133.366.5533.64.72.28.1667.6.25.96.25.446,0,.813-.1033,1.1-.31.293-.2133.48-.4933.56-.84h.58c-.054.3333-.184.6233-.39.87-.207.24-.47.43-.79.57-.314.1333-.667.2-1.06.2Zm-1.83-2.98l-.07-.06h3.65l-.06.09c.006-.4333-.064-.79-.21-1.07-.14-.2867-.34-.5-.6-.64-.26-.1467-.564-.22-.91-.22-.354,0-.664.0767-.93.23-.26.1533-.467.3733-.62.66-.147.28-.23.6167-.25,1.01Zm7.007,3c-.44,0-.817-.07-1.13-.21-.307-.1467-.544-.3467-.71-.6-.16-.26-.24-.5633-.24-.91h.58c0,.4267.14.7433.42.95.28.2.643.3,1.09.3.453,0,.8-.0867,1.04-.26s.36-.4167.36-.73c0-.2267-.05-.4067-.15-.54s-.254-.2367-.46-.31c-.207-.0733-.48-.1333-.82-.18-.42-.0667-.774-.15-1.06-.25-.28-.1067-.494-.2533-.64-.44-.147-.1867-.22-.4367-.22-.75c0-.3.08-.5567.24-.77.166-.22.393-.3933.68-.52.286-.1267.62-.19,1-.19.406,0,.753.0667,1.04.2.286.1333.506.32.66.56.153.24.23.5267.23.86h-.58c-.007-.2733-.067-.4933-.18-.66-.114-.1667-.27-.29-.47-.37s-.434-.12-.7-.12c-.42,0-.747.0867-.98.26-.234.1733-.35.4033-.35.69c0,.2067.053.3767.16.51.106.1267.27.2267.49.3.226.0667.506.1267.84.18.286.04.543.0933.77.16.226.06.423.1467.59.26.166.1067.293.2467.38.42.086.1733.13.39.13.65c0,.4867-.187.86-.56,1.12-.367.26-.85.39-1.45.39Zm3.242-.1v-5.21h.59v5.21h-.59Zm0-6.14v-1.15h.59v1.15h-.59Zm4.127,7.91c-.373,0-.703-.0567-.99-.17s-.52-.2733-.7-.48c-.173-.2067-.283-.4567-.33-.75h.57c.04.1867.123.35.25.49.127.1467.29.2567.49.33.207.0733.443.11.71.11.353,0,.657-.0533.91-.16.253-.1.45-.2667.59-.5.147-.2333.22-.5533.22-.96v-1.16h-.05c-.127.3533-.353.64-.68.86s-.717.33-1.17.33c-.327,0-.623-.0567-.89-.17-.26-.1133-.483-.28-.67-.5s-.33-.4833-.43-.79c-.1-.3133-.15-.66-.15-1.04c0-.5133.09-.9567.27-1.33.18-.38.43-.67.75-.87.327-.2067.707-.31,1.14-.31.453,0,.84.1067,1.16.32s.543.5.67.86h.05v-1.09h.58v4.88c0,.38-.057.7033-.17.97s-.273.4833-.48.65c-.2.1667-.443.2867-.73.36-.28.08-.587.12-.92.12Zm-.02-2.55c.367,0,.677-.0833.93-.25.26-.1667.457-.38.59-.64.14-.2667.213-.5367.22-.81l-.01-.64c0-.2667-.067-.53-.2-.79-.127-.26-.32-.4733-.58-.64-.253-.1667-.563-.25-.93-.25-.353,0-.66.08-.92.24-.253.16-.45.3933-.59.7-.133.3-.2.6567-.2,1.07c0,.42.07.78.21,1.08s.337.53.59.69.55.24.89.24Zm3.881.78v-5.21h.55l.03,1.13h.04c.167-.4.42-.7.76-.9.347-.2067.723-.31,1.13-.31.273,0,.523.0433.75.13.233.08.433.21.6.39.167.1733.297.4033.39.69.093.28.14.6233.14,1.03v3.05h-.59v-2.94c0-.42-.053-.7667-.16-1.04-.1-.2733-.257-.4733-.47-.6-.213-.1333-.487-.2-.82-.2-.353,0-.663.0867-.93.26s-.473.41-.62.71c-.147.2933-.22.6333-.22,1.02v2.79h-.58Zm7.997.08c-.493,0-.923-.11-1.29-.33-.36-.22-.64-.53-.84-.93-.2-.4067-.3-.8767-.3-1.41c0-.5467.097-1.02.29-1.42.193-.4067.47-.72.83-.94.36-.2267.79-.34,1.29-.34.54,0,.987.12,1.34.36.36.24.617.57.77.99.16.42.217.8933.17,1.42h-4.1c.007.4467.087.8267.24,1.14s.367.5533.64.72c.28.1667.6.25.96.25.447,0,.813-.1033,1.1-.31.293-.2133.48-.4933.56-.84h.58c-.053.3333-.183.6233-.39.87-.207.24-.47.43-.79.57-.313.1333-.667.2-1.06.2Zm-1.83-2.98l-.07-.06h3.65l-.06.09c.007-.4333-.063-.79-.21-1.07-.14-.2867-.34-.5-.6-.64-.26-.1467-.563-.22-.91-.22-.353,0-.663.0767-.93.23-.26.1533-.467.3733-.62.66-.147.28-.23.6167-.25,1.01Zm5.337,2.9v-5.21h.52l.04,1.01h.03c.113-.34.317-.6033.61-.79.293-.1933.623-.29.99-.29.06,0,.113.0033.16.01.053,0,.103.0033.15.01v.56c-.04-.0067-.09-.01-.15-.01-.053,0-.107,0-.16,0-.293,0-.557.0567-.79.17s-.423.28-.57.5c-.14.22-.223.4833-.25.79v3.25h-.58Z" fill="url(#egNf46UvBPA8-fill)"/><g id="egNf46UvBPA9_ts" transform="translate(89.663799,93.455502) scale(1.3,1.3)"><path d="M85.1339,86.812c-1.6139,0-3.3219,1.406-3.3219,3.6239c0,2.5971,1.9086,5.0058,4.0648,6.8637c1.1763,1.0063,2.4442,1.9005,3.787,2.6708c1.3428-.7703,2.6106-1.6645,3.787-2.6708c2.1562-1.8579,4.0648-4.2666,4.0648-6.8637c0-2.2179-1.7081-3.6239-3.3219-3.6239-1.6586,0-3.1516,1.191-3.659,2.9667-.0542.1892-.1685.3556-.3256.474s-.3485.1825-.5453.1825-.3882-.064-.5453-.1825c-.1572-.1184-.2715-.2848-.3257-.474-.5073-1.7757-2.0004-2.9667-3.6589-2.9667Zm4.5299,14.194l-.4168.804-.0024-.001-.0072-.004-.0218-.012c-.1264-.065-.2512-.134-.3745-.205-1.4722-.838-2.8612-1.8146-4.1481-2.9162C82.4703,96.7548,80,93.8786,80,90.4359C80,87.2178,82.5198,85,85.1339,85c1.8687,0,3.5067.9688,4.5299,2.4401C90.6869,85.9688,92.3249,85,94.1937,85c2.614,0,5.1339,2.2178,5.1339,5.4359c0,3.4427-2.4703,6.3189-4.693,8.2359-1.3961,1.1934-2.9117,2.2392-4.5227,3.1212l-.0217.012-.0073.004h-.0024l-.4167-.803Zm0,0l.4167.804c-.1288.067-.2717.101-.4167.101s-.2879-.034-.4168-.101l.4168-.804Z" transform="translate(-89.663799,-93.455502)" clip-rule="evenodd" fill="#ff86b1" fill-rule="evenodd"/></g><path d="M105.668,96l1.51-7.29h.6l-1.42,6.84-.1-.12h3.7l-.11.57h-4.18Zm7.243.1c-.427,0-.793-.0967-1.1-.29s-.54-.4633-.7-.81-.233-.7533-.22-1.22c.027-.6.157-1.13.39-1.59.24-.4667.56-.8333.96-1.1s.857-.4,1.37-.4c.5,0,.903.1167,1.21.35s.513.56.62.98c.113.4133.113.8933,0,1.44h-3.95c-.06.44-.037.82.07,1.14.113.32.29.57.53.75.24.1733.527.26.86.26.433,0,.807-.1067,1.12-.32.32-.22.54-.5033.66-.85h.57c-.087.3333-.247.6233-.48.87-.227.2467-.507.44-.84.58-.327.14-.683.21-1.07.21Zm-1.37-2.94l-.13-.14h3.68l-.17.14c.08-.4133.073-.7667-.02-1.06-.093-.3-.26-.5267-.5-.68-.24-.16-.527-.24-.86-.24-.307,0-.597.0733-.87.22s-.51.3667-.71.66c-.193.2933-.333.66-.42,1.1ZM117.68,96c-.213,0-.4-.0367-.56-.11-.153-.0733-.263-.19-.33-.35-.06-.1667-.063-.38-.01-.64l.76-3.62h-1.03l.09-.49h1.04l.33-1.6.6-.1-.36,1.7h1.26l-.1.49h-1.26l-.75,3.64c-.046.2267-.016.38.09.46.107.0733.26.11.46.11h.57l-.1.51h-.7Zm2.422-5.03l.07-.36.1-.01c.14-.0067.247-.0633.32-.17.074-.1067.124-.2367.15-.39l.12-.57h-.3l.16-.76h.64l-.29,1.39c-.053.2867-.15.5-.29.64-.14.1333-.32.21-.54.23h-.14Zm2.441,5.13c-.426,0-.79-.07-1.09-.21-.293-.1467-.513-.35-.66-.61-.146-.26-.21-.5633-.19-.91h.56c-.026.3933.09.7033.35.93.26.22.607.33,1.04.33.487,0,.844-.09,1.07-.27.227-.1867.344-.43.35-.73.014-.22-.023-.3933-.11-.52-.08-.1333-.206-.24-.38-.32-.173-.0867-.4-.16-.68-.22-.413-.1-.736-.2133-.97-.34-.233-.1333-.396-.2867-.49-.46-.093-.18-.136-.3833-.13-.61.014-.3.097-.56.25-.78.154-.22.367-.39.64-.51.274-.12.59-.18.95-.18.387,0,.72.0667,1,.2.287.1267.507.31.66.55.154.2333.224.5067.21.82h-.57c.02-.2267-.026-.42-.14-.58-.106-.1667-.263-.2933-.47-.38-.2-.0933-.44-.14-.72-.14-.366,0-.66.0833-.88.25-.213.1667-.326.3933-.34.68-.006.1867.027.3433.1.47.08.12.214.22.4.3.194.08.45.1567.77.23.267.06.494.13.68.21.194.08.354.18.48.3.127.1133.217.25.27.41.06.16.087.3467.08.56-.013.4867-.203.8633-.57,1.13-.36.2667-.85.4-1.47.4Zm5.308-.1l1.09-5.21h.53l-.15.99h.05c.22-.3467.493-.6133.82-.8.333-.1933.693-.29,1.08-.29.426,0,.773.1133,1.04.34.273.22.436.5367.49.95h.08c.233-.4467.533-.7733.9-.98.366-.2067.756-.31,1.17-.31.386,0,.71.09.97.27.26.1733.436.4367.53.79.093.3467.083.7833-.03,1.31l-.61,2.94h-.58l.6-2.88c.086-.4067.103-.75.05-1.03-.054-.2867-.177-.5067-.37-.66-.194-.1533-.46-.23-.8-.23-.334,0-.637.08-.91.24-.267.1533-.49.37-.67.65s-.31.6033-.39.97l-.62,2.94h-.59l.6-2.88c.086-.42.103-.77.05-1.05-.054-.2867-.177-.5033-.37-.65-.187-.1467-.447-.22-.78-.22-.314,0-.607.0767-.88.23-.274.1467-.507.36-.7.64-.187.2733-.32.5967-.4.97l-.61,2.96h-.59Zm11.411.1c-.28,0-.533-.0533-.76-.16-.226-.1067-.42-.2567-.58-.45-.153-.1933-.27-.4267-.35-.7-.073-.28-.1-.5933-.08-.94.034-.62.164-1.1667.39-1.64.227-.4733.53-.8433.91-1.11.387-.2667.824-.4,1.31-.4.32,0,.597.06.83.18.24.1133.434.2733.58.48.147.2067.244.44.29.7h.04l.28-1.27h.56L141.602,96h-.59l.2-.99h-.03c-.193.3333-.46.6-.8.8-.333.1933-.706.29-1.12.29Zm.24-.5c.34,0,.644-.0767.91-.23.274-.16.5-.37.68-.63.187-.26.307-.5433.36-.85l.14-.71c.074-.3733.06-.7067-.04-1-.1-.3-.27-.5367-.51-.71-.233-.1733-.516-.26-.85-.26-.386,0-.736.1133-1.05.34-.306.2267-.553.54-.74.94-.18.3933-.28.85-.3,1.37-.013.3667.037.68.15.94.114.26.277.46.49.6.22.1333.474.2.76.2Zm3.72.4l1.52-7.29h.59l-1.01,4.84.7-.62l2.54-2.14h.79l-2.38,2.01l1.39,3.2h-.65l-.99-2.3-.22-.54-1.33,1.13-.36,1.71h-.59Zm7.101.1c-.427,0-.793-.0967-1.1-.29s-.54-.4633-.7-.81-.233-.7533-.22-1.22c.027-.6.157-1.13.39-1.59.24-.4667.56-.8333.96-1.1s.857-.4,1.37-.4c.5,0,.903.1167,1.21.35s.513.56.62.98c.113.4133.113.8933,0,1.44h-3.95c-.06.44-.037.82.07,1.14.113.32.29.57.53.75.24.1733.527.26.86.26.433,0,.807-.1067,1.12-.32.32-.22.54-.5033.66-.85h.57c-.087.3333-.247.6233-.48.87-.227.2467-.507.44-.84.58-.327.14-.683.21-1.07.21Zm-1.37-2.94l-.13-.14h3.68l-.17.14c.08-.4133.073-.7667-.02-1.06-.093-.3-.26-.5267-.5-.68-.24-.16-.527-.24-.86-.24-.307,0-.597.0733-.87.22s-.51.3667-.71.66c-.193.2933-.333.66-.42,1.1ZM157.417,96c-.214,0-.4-.0367-.56-.11-.154-.0733-.264-.19-.33-.35-.06-.1667-.064-.38-.01-.64l.76-3.62h-1.03l.09-.49h1.04l.33-1.6.6-.1-.36,1.7h1.26l-.1.49h-1.26l-.75,3.64c-.047.2267-.017.38.09.46.106.0733.26.11.46.11h.57l-.1.51h-.7Zm1.83,0l1.51-7.29h.58l-.64,3.07h.06c.233-.38.52-.6567.86-.83.347-.1733.7-.26,1.06-.26.287,0,.54.0533.76.16.22.1.393.25.52.45.133.2.217.4467.25.74.04.2933.017.6333-.07,1.02l-.6,2.94h-.59l.6-2.89c.093-.4067.11-.75.05-1.03-.053-.2867-.177-.5033-.37-.65-.187-.1533-.447-.23-.78-.23-.327,0-.63.0767-.91.23-.273.1467-.507.36-.7.64-.187.2733-.32.6-.4.98l-.62,2.95h-.57Zm5.85,0l1.09-5.21h.58L165.677,96h-.58Zm1.29-6.14l.23-1.15h.59l-.24,1.15h-.58Zm2.777,6.24c-.426,0-.79-.07-1.09-.21-.293-.1467-.513-.35-.66-.61-.146-.26-.21-.5633-.19-.91h.56c-.026.3933.09.7033.35.93.26.22.607.33,1.04.33.487,0,.844-.09,1.07-.27.227-.1867.344-.43.35-.73.014-.22-.023-.3933-.11-.52-.08-.1333-.206-.24-.38-.32-.173-.0867-.4-.16-.68-.22-.413-.1-.736-.2133-.97-.34-.233-.1333-.396-.2867-.49-.46-.093-.18-.136-.3833-.13-.61.014-.3.097-.56.25-.78.154-.22.367-.39.64-.51.274-.12.59-.18.95-.18.387,0,.72.0667,1,.2.287.1267.507.31.66.55.154.2333.224.5067.21.82h-.57c.02-.2267-.026-.42-.14-.58-.106-.1667-.263-.2933-.47-.38-.2-.0933-.44-.14-.72-.14-.366,0-.66.0833-.88.25-.213.1667-.326.3933-.34.68-.006.1867.027.3433.1.47.08.12.214.22.4.3.194.08.45.1567.77.23.267.06.494.13.68.21.194.08.354.18.48.3.127.1133.217.25.27.41.06.16.087.3467.08.56-.013.4867-.203.8633-.57,1.13-.36.2667-.85.4-1.47.4Zm5.958-.1l-.3-5.21h.56l.27,4.62h.02l2.14-4.62h.67l.26,4.62h.03l2.15-4.62h.59L179.042,96h-.74l-.29-4.47h-.03L175.932,96h-.81Zm8.415.1c-.326,0-.62-.0533-.88-.16-.26-.1133-.483-.27-.67-.47-.18-.2067-.316-.45-.41-.73-.086-.2867-.126-.61-.12-.97.027-.6133.16-1.15.4-1.61.24-.4667.567-.83.98-1.09.414-.26.887-.39,1.42-.39.327,0,.617.0567.87.17.26.1067.477.2633.65.47.18.2067.314.4533.4.74.094.2867.134.6033.12.95-.02.6067-.15,1.1433-.39,1.61-.233.4667-.556.83-.97,1.09-.406.26-.873.39-1.4.39Zm.04-.5c.42,0,.787-.1067,1.1-.32.32-.22.574-.5233.76-.91.187-.3933.287-.8467.3-1.36.014-.2867-.016-.5433-.09-.77-.066-.2267-.17-.4167-.31-.57-.133-.16-.296-.28-.49-.36-.186-.0867-.403-.13-.65-.13-.406,0-.77.11-1.09.33-.32.2133-.573.5167-.76.91-.18.3867-.28.84-.3,1.36-.006.2933.024.5533.09.78.067.2267.167.4167.3.57.134.1533.297.27.49.35.194.08.41.12.65.12Zm3.395.4l1.09-5.21h.5l-.18,1.01h.04c.18-.3267.42-.5867.72-.78.306-.2.643-.3,1.01-.3.1,0,.19.0067.27.02.086.0067.153.02.2.04l-.13.58c-.047-.0267-.11-.0433-.19-.05-.08-.0133-.164-.02-.25-.02-.267.0067-.524.07-.77.19-.247.1133-.464.2833-.65.51-.18.2267-.317.5067-.41.84l-.67,3.17h-.58Zm3.496,0l1.51-7.29h.58L191.038,96h-.57Zm4.068.1c-.28,0-.534-.0533-.76-.16-.22-.1067-.41-.2567-.57-.45-.154-.1933-.27-.4267-.35-.7-.074-.28-.1-.5933-.08-.94.033-.62.163-1.1667.39-1.64.226-.4733.53-.8433.91-1.11.386-.2667.823-.4,1.31-.4.32,0,.596.06.83.18.24.1133.433.2733.58.48.146.2067.243.44.29.7h.04l.71-3.35h.58L196.876,96h-.57l.19-.99h-.04c-.194.34-.46.6067-.8.8s-.714.29-1.12.29Zm.25-.5c.333,0,.633-.0767.9-.23.273-.16.5-.37.68-.63.186-.26.31-.5467.37-.86l.13-.69c.06-.2733.066-.53.02-.77-.04-.2467-.127-.46-.26-.64-.127-.18-.29-.32-.49-.42-.194-.1-.417-.15-.67-.15-.387,0-.737.1133-1.05.34-.307.2267-.55.54-.73.94-.18.3933-.28.85-.3,1.37-.014.3667.036.68.15.94.113.26.276.46.49.6.22.1333.473.2.76.2Zm7.943.5c-.28,0-.533-.0533-.76-.16s-.42-.2567-.58-.45c-.153-.1933-.27-.4267-.35-.7-.073-.28-.1-.5933-.08-.94.033-.62.163-1.1667.39-1.64s.53-.8433.91-1.11c.387-.2667.823-.4,1.31-.4.32,0,.597.06.83.18.24.1133.433.2733.58.48s.243.44.29.7h.04l.28-1.27h.56L205.069,96h-.59l.2-.99h-.03c-.193.3333-.46.6-.8.8-.333.1933-.707.29-1.12.29Zm.24-.5c.34,0,.643-.0767.91-.23.273-.16.5-.37.68-.63.187-.26.307-.5433.36-.85l.14-.71c.073-.3733.06-.7067-.04-1-.1-.3-.27-.5367-.51-.71-.233-.1733-.517-.26-.85-.26-.387,0-.737.1133-1.05.34-.307.2267-.553.54-.74.94-.18.3933-.28.85-.3,1.37-.013.3667.037.68.15.94s.277.46.49.6c.22.1333.473.2.76.2Zm8.634.49c-.313,0-.593-.06-.84-.18-.24-.12-.433-.2833-.58-.49-.14-.2067-.233-.4367-.28-.69h-.04l-.29,1.27h-.56l1.51-7.29h.59l-.64,3.07h.05c.193-.3333.457-.5967.79-.79.34-.2.717-.3,1.13-.3.28,0,.53.0533.75.16.227.1067.42.26.58.46.16.1933.277.4267.35.7.08.2733.11.58.09.92-.033.62-.167,1.17-.4,1.65-.227.4733-.53.8433-.91,1.11s-.813.4-1.3.4Zm-.09-.51c.393,0,.743-.1133,1.05-.34s.55-.54.73-.94c.187-.4.29-.8567.31-1.37.013-.28-.013-.5267-.08-.74-.06-.22-.153-.4033-.28-.55s-.28-.2567-.46-.33c-.173-.08-.37-.12-.59-.12-.333,0-.637.0767-.91.23-.267.1533-.49.36-.67.62s-.3.5467-.36.86l-.15.7c-.067.36-.053.6933.04,1c.1.3.267.54.5.72.24.1733.53.26.87.26Zm5.5.52c-.427,0-.794-.0967-1.1-.29-.307-.1933-.54-.4633-.7-.81s-.234-.7533-.22-1.22c.026-.6.156-1.13.39-1.59.24-.4667.56-.8333.96-1.1s.856-.4,1.37-.4c.5,0,.903.1167,1.21.35.306.2333.513.56.62.98.113.4133.113.8933,0,1.44h-3.95c-.06.44-.037.82.07,1.14.113.32.29.57.53.75.24.1733.526.26.86.26.433,0,.806-.1067,1.12-.32.32-.22.54-.5033.66-.85h.57c-.087.3333-.247.6233-.48.87-.227.2467-.507.44-.84.58-.327.14-.684.21-1.07.21Zm-1.37-2.94l-.13-.14h3.68l-.17.14c.08-.4133.073-.7667-.02-1.06-.094-.3-.26-.5267-.5-.68-.24-.16-.527-.24-.86-.24-.307,0-.597.0733-.87.22-.274.1467-.51.3667-.71.66-.194.2933-.334.66-.42,1.1ZM221.782,96c-.214,0-.4-.0367-.56-.11-.154-.0733-.264-.19-.33-.35-.06-.1667-.064-.38-.01-.64l.76-3.62h-1.03l.09-.49h1.04l.33-1.6.6-.1-.36,1.7h2.11l.33-1.6.6-.1-.36,1.7h1.25l-.1.49h-1.24l-.76,3.64c-.047.2267-.017.38.09.46.106.0733.256.11.45.11h.58l-.11.51h-.68c-.22,0-.41-.0367-.57-.11-.154-.0733-.264-.19-.33-.35-.06-.1667-.064-.38-.01-.64l.75-3.62h-2.1l-.75,3.64c-.047.2267-.017.38.09.46.106.0733.26.11.46.11h.57l-.1.51h-.7Zm6.656.1c-.426,0-.793-.0967-1.1-.29-.306-.1933-.54-.4633-.7-.81s-.233-.7533-.22-1.22c.027-.6.157-1.13.39-1.59.24-.4667.56-.8333.96-1.1s.857-.4,1.37-.4c.5,0,.904.1167,1.21.35.307.2333.514.56.62.98.114.4133.114.8933,0,1.44h-3.95c-.06.44-.036.82.07,1.14.114.32.29.57.53.75.24.1733.527.26.86.26.434,0,.807-.1067,1.12-.32.32-.22.54-.5033.66-.85h.57c-.086.3333-.246.6233-.48.87-.226.2467-.506.44-.84.58-.326.14-.683.21-1.07.21Zm-1.37-2.94l-.13-.14h3.68l-.17.14c.08-.4133.074-.7667-.02-1.06-.093-.3-.26-.5267-.5-.68-.24-.16-.526-.24-.86-.24-.306,0-.596.0733-.87.22-.273.1467-.51.3667-.71.66-.193.2933-.333.66-.42,1.1Zm4.66,2.84l1.09-5.21h.5l-.18,1.01h.04c.18-.3267.42-.5867.72-.78.306-.2.643-.3,1.01-.3.1,0,.19.0067.27.02.086.0067.153.02.2.04l-.13.58c-.047-.0267-.11-.0433-.19-.05-.08-.0133-.164-.02-.25-.02-.267.0067-.524.07-.77.19-.247.1133-.464.2833-.65.51-.18.2267-.317.5067-.41.84l-.67,3.17h-.58Zm5.45,1.67l1.46-6.88h.57l-.2.99h.05c.187-.3333.45-.5967.79-.79.34-.2.717-.3,1.13-.3.28,0,.53.0533.75.16.227.1067.417.2567.57.45.16.1933.277.43.35.71.08.2733.11.58.09.92-.033.62-.167,1.17-.4,1.65-.227.4733-.53.8433-.91,1.11-.373.2667-.803.4-1.29.4-.32,0-.6-.06-.84-.18s-.433-.2833-.58-.49-.24-.4367-.28-.69h-.04l-.63,2.94h-.59Zm2.87-2.09c.393,0,.743-.1133,1.05-.34s.55-.54.73-.94c.18-.4067.28-.8633.3-1.37.013-.3733-.037-.6867-.15-.94-.113-.26-.277-.4567-.49-.59-.213-.14-.467-.21-.76-.21-.34,0-.643.08-.91.24-.267.1533-.49.36-.67.62s-.3.55-.36.87l-.14.68c-.06.2733-.07.53-.03.77.047.24.133.4533.26.64.127.18.29.32.49.42s.427.15.68.15Zm3.33.42l1.51-7.29h.58L243.948,96h-.57Zm4.078.1c-.28,0-.534-.0533-.76-.16-.227-.1067-.42-.2567-.58-.45-.154-.1933-.27-.4267-.35-.7-.074-.28-.1-.5933-.08-.94.033-.62.163-1.1667.39-1.64.226-.4733.53-.8433.91-1.11.386-.2667.823-.4,1.31-.4.32,0,.596.06.83.18.24.1133.433.2733.58.48.146.2067.243.44.29.7h.04l.28-1.27h.56L249.796,96h-.59l.2-.99h-.03c-.194.3333-.46.6-.8.8-.334.1933-.707.29-1.12.29Zm.24-.5c.34,0,.643-.0767.91-.23.273-.16.5-.37.68-.63.186-.26.306-.5433.36-.85l.14-.71c.073-.3733.06-.7067-.04-1-.1-.3-.27-.5367-.51-.71-.234-.1733-.517-.26-.85-.26-.387,0-.737.1133-1.05.34-.307.2267-.554.54-.74.94-.18.3933-.28.85-.3,1.37-.014.3667.036.68.15.94.113.26.276.46.49.6.22.1333.473.2.76.2Zm5.909.5c-.32,0-.61-.0533-.87-.16-.253-.1133-.473-.27-.66-.47-.18-.2-.316-.4433-.41-.73-.086-.2867-.126-.6067-.12-.96.027-.6133.16-1.15.4-1.61.247-.4667.577-.83.99-1.09.414-.26.887-.39,1.42-.39.4,0,.747.08,1.04.24.3.16.534.3767.7.65.167.2733.25.59.25.95l-.55-.02c-.013-.26-.083-.4867-.21-.68-.126-.2-.3-.3567-.52-.47s-.476-.17-.77-.17c-.413,0-.78.1067-1.1.32s-.573.5167-.76.91c-.18.3867-.28.84-.3,1.36-.013.38.04.71.16.99.127.2733.304.48.53.62.234.14.507.21.82.21.307,0,.584-.0533.83-.16.247-.1133.457-.2667.63-.46.174-.1933.3-.4233.38-.69l.58.01c-.093.3733-.26.6933-.5.96-.233.2667-.52.4733-.86.62-.333.1467-.7.22-1.1.22Zm5.458,0c-.426,0-.793-.0967-1.1-.29-.306-.1933-.54-.4633-.7-.81s-.233-.7533-.22-1.22c.027-.6.157-1.13.39-1.59.24-.4667.56-.8333.96-1.1s.857-.4,1.37-.4c.5,0,.904.1167,1.21.35.307.2333.514.56.62.98.114.4133.114.8933,0,1.44h-3.95c-.06.44-.036.82.07,1.14.114.32.29.57.53.75.24.1733.527.26.86.26.434,0,.807-.1067,1.12-.32.32-.22.54-.5033.66-.85h.57c-.086.3333-.246.6233-.48.87-.226.2467-.506.44-.84.58-.326.14-.683.21-1.07.21Zm-1.37-2.94l-.13-.14h3.68l-.17.14c.08-.4133.074-.7667-.02-1.06-.093-.3-.26-.5267-.5-.68-.24-.16-.526-.24-.86-.24-.306,0-.596.0733-.87.22-.273.1467-.51.3667-.71.66-.193.2933-.333.66-.42,1.1ZM264.997,96l.99-4.72h-.98l.1-.49h.98l.25-1.14c.066-.3133.206-.5467.42-.7.213-.16.48-.24.8-.24h.86l-.1.47h-.69c-.2,0-.364.05-.49.15-.12.0933-.2.2333-.24.42l-.22,1.04h1.18l-.1.49h-1.19l-.98,4.72h-.59Zm4.878.1c-.326,0-.62-.0533-.88-.16-.26-.1133-.483-.27-.67-.47-.18-.2067-.316-.45-.41-.73-.086-.2867-.126-.61-.12-.97.027-.6133.16-1.15.4-1.61.24-.4667.567-.83.98-1.09.414-.26.887-.39,1.42-.39.327,0,.617.0567.87.17.26.1067.477.2633.65.47.18.2067.314.4533.4.74.094.2867.134.6033.12.95-.02.6067-.15,1.1433-.39,1.61-.233.4667-.556.83-.97,1.09-.406.26-.873.39-1.4.39Zm.04-.5c.42,0,.787-.1067,1.1-.32.32-.22.574-.5233.76-.91.187-.3933.287-.8467.3-1.36.014-.2867-.016-.5433-.09-.77-.066-.2267-.17-.4167-.31-.57-.133-.16-.296-.28-.49-.36-.186-.0867-.403-.13-.65-.13-.406,0-.77.11-1.09.33-.32.2133-.573.5167-.76.91-.18.3867-.28.84-.3,1.36-.006.2933.024.5533.09.78.067.2267.167.4167.3.57.134.1533.297.27.49.35.194.08.41.12.65.12Zm3.395.4l1.09-5.21h.5l-.18,1.01h.04c.18-.3267.42-.5867.72-.78.306-.2.643-.3,1.01-.3.1,0,.19.0067.27.02.086.0067.153.02.2.04l-.13.58c-.047-.0267-.11-.0433-.19-.05-.08-.0133-.164-.02-.25-.02-.267.0067-.524.07-.77.19-.247.1133-.464.2833-.65.51-.18.2267-.317.5067-.41.84L273.89,96h-.58Zm7.97.1c-.427,0-.793-.0967-1.1-.29s-.54-.4633-.7-.81-.233-.7533-.22-1.22c.027-.6.157-1.13.39-1.59.24-.4667.56-.8333.96-1.1s.857-.4,1.37-.4c.5,0,.903.1167,1.21.35s.513.56.62.98c.113.4133.113.8933,0,1.44h-3.95c-.06.44-.037.82.07,1.14.113.32.29.57.53.75.24.1733.527.26.86.26.433,0,.807-.1067,1.12-.32.32-.22.54-.5033.66-.85h.57c-.087.3333-.247.6233-.48.87-.227.2467-.507.44-.84.58-.327.14-.683.21-1.07.21Zm-1.37-2.94l-.13-.14h3.68l-.17.14c.08-.4133.073-.7667-.02-1.06-.093-.3-.26-.5267-.5-.68-.24-.16-.527-.24-.86-.24-.307,0-.597.0733-.87.22s-.51.3667-.71.66c-.193.2933-.333.66-.42,1.1ZM285.375,96l-.8-5.21h.6l.51,3.68.12.98h.04l.5-.94l2.02-3.72h.67L286.055,96h-.68Zm5.475.1c-.426,0-.793-.0967-1.1-.29-.306-.1933-.54-.4633-.7-.81s-.233-.7533-.22-1.22c.027-.6.157-1.13.39-1.59.24-.4667.56-.8333.96-1.1s.857-.4,1.37-.4c.5,0,.904.1167,1.21.35.307.2333.514.56.62.98.114.4133.114.8933,0,1.44h-3.95c-.06.44-.036.82.07,1.14.114.32.29.57.53.75.24.1733.527.26.86.26.434,0,.807-.1067,1.12-.32.32-.22.54-.5033.66-.85h.57c-.086.3333-.246.6233-.48.87-.226.2467-.506.44-.84.58-.326.14-.683.21-1.07.21Zm-1.37-2.94l-.13-.14h3.68l-.17.14c.08-.4133.074-.7667-.02-1.06-.093-.3-.26-.5267-.5-.68-.24-.16-.526-.24-.86-.24-.306,0-.596.0733-.87.22-.273.1467-.51.3667-.71.66-.193.2933-.333.66-.42,1.1Zm3.534,4.51l.11-.51h.26c.193,0,.363-.0167.51-.05.147-.0267.277-.0867.39-.18.12-.0867.237-.2233.35-.41l.62-1-.06.29-.99-5.02h.61l.58,3.23.16.97h.06l.54-.96l1.87-3.24h.66l-3.5,5.9c-.153.2533-.313.45-.48.59-.16.1467-.343.2467-.55.3-.2.06-.437.09-.71.09h-.43Zm7.555-1.57c-.327,0-.62-.0533-.88-.16-.26-.1133-.484-.27-.67-.47-.18-.2067-.317-.45-.41-.73-.087-.2867-.127-.61-.12-.97.026-.6133.16-1.15.4-1.61.24-.4667.566-.83.98-1.09.413-.26.886-.39,1.42-.39.326,0,.616.0567.87.17.26.1067.476.2633.65.47.18.2067.313.4533.4.74.093.2867.133.6033.12.95-.02.6067-.15,1.1433-.39,1.61-.234.4667-.557.83-.97,1.09-.407.26-.874.39-1.4.39Zm.04-.5c.42,0,.786-.1067,1.1-.32.32-.22.573-.5233.76-.91.186-.3933.286-.8467.3-1.36.013-.2867-.017-.5433-.09-.77-.067-.2267-.17-.4167-.31-.57-.134-.16-.297-.28-.49-.36-.187-.0867-.404-.13-.65-.13-.407,0-.77.11-1.09.33-.32.2133-.574.5167-.76.91-.18.3867-.28.84-.3,1.36-.007.2933.023.5533.09.78.066.2267.166.4167.3.57.133.1533.296.27.49.35.193.08.41.12.65.12Zm3.394.4l1.09-5.21h.52l-.15.99h.05c.233-.38.52-.6567.86-.83.347-.1733.7-.26,1.06-.26.287,0,.54.0533.76.16.22.1.393.25.52.45.133.2.217.4467.25.74.04.2933.017.6333-.07,1.02l-.6,2.94h-.59l.6-2.89c.093-.4067.11-.75.05-1.03-.053-.2867-.177-.5033-.37-.65-.187-.1533-.447-.23-.78-.23-.327,0-.63.0767-.91.23-.273.1467-.507.36-.7.64-.187.2733-.32.5967-.4.97l-.62,2.96h-.57Zm8,.1c-.427,0-.794-.0967-1.1-.29-.307-.1933-.54-.4633-.7-.81s-.234-.7533-.22-1.22c.026-.6.156-1.13.39-1.59.24-.4667.56-.8333.96-1.1s.856-.4,1.37-.4c.5,0,.903.1167,1.21.35.306.2333.513.56.62.98.113.4133.113.8933,0,1.44h-3.95c-.06.44-.037.82.07,1.14.113.32.29.57.53.75.24.1733.526.26.86.26.433,0,.806-.1067,1.12-.32.32-.22.54-.5033.66-.85h.57c-.087.3333-.247.6233-.48.87-.227.2467-.507.44-.84.58-.327.14-.684.21-1.07.21Zm-1.37-2.94l-.13-.14h3.68l-.17.14c.08-.4133.073-.7667-.02-1.06-.094-.3-.26-.5267-.5-.68-.24-.16-.527-.24-.86-.24-.307,0-.597.0733-.87.22-.274.1467-.51.3667-.71.66-.194.2933-.334.66-.42,1.1Zm5.269.92l.48-3l.5-2.37h.6l-.49,2.37-.78,3h-.31Zm-.55,1.92l.15-.76h.62l-.16.76h-.61Z" fill="#656565"/></svg>
